<?xml version="1.0" encoding="UTF-8" standalone="no"?>
<!-- Created with Inkscape (http://www.inkscape.org/) -->

<svg
   xmlns:dc="http://purl.org/dc/elements/1.1/"
   xmlns:cc="http://creativecommons.org/ns#"
   xmlns:rdf="http://www.w3.org/1999/02/22-rdf-syntax-ns#"
   xmlns:svg="http://www.w3.org/2000/svg"
   xmlns="http://www.w3.org/2000/svg"
   xmlns:sodipodi="http://sodipodi.sourceforge.net/DTD/sodipodi-0.dtd"
   xmlns:inkscape="http://www.inkscape.org/namespaces/inkscape"
   viewBox="0 0 529.375 382.41837" width="372" height="269"

   id="svg2"
   version="1.1"
   inkscape:version="0.48.3.1 r9886"
   sodipodi:docname="New document 1">
  <defs
     id="defs4">
    <clipPath
       id="clipPath3207"
       clipPathUnits="userSpaceOnUse">
      <path
         id="path3209"
         d="m 145.685,96.5915 14.982,0 0,-14.9856 -14.982,0 0,14.9856 z"
         inkscape:connector-curvature="0" />
    </clipPath>
    <clipPath
       id="clipPath3115"
       clipPathUnits="userSpaceOnUse">
      <path
         id="path3117"
         d="m 66.1267,307.833 241.2603,0 0,-130.219 -241.2603,0 0,130.219 z"
         inkscape:connector-curvature="0" />
    </clipPath>
    <clipPath
       id="clipPath3091"
       clipPathUnits="userSpaceOnUse">
      <path
         id="path3093"
         d="m 202.397,163.149 50.62,0 0,-60.15 -50.62,0 0,60.15 z"
         inkscape:connector-curvature="0" />
    </clipPath>
    <clipPath
       id="clipPath3075"
       clipPathUnits="userSpaceOnUse">
      <path
         id="path3077"
         d="m 144.647,163.149 91.5,0 0,-137.3203 -91.5,0 0,137.3203 z"
         inkscape:connector-curvature="0" />
    </clipPath>
    <clipPath
       id="clipPath3059"
       clipPathUnits="userSpaceOnUse">
      <path
         id="path3061"
         d="m 254.017,163.149 62.5,0 0,-60.15 -62.5,0 0,60.15 z"
         inkscape:connector-curvature="0" />
    </clipPath>
    <clipPath
       id="clipPath3043"
       clipPathUnits="userSpaceOnUse">
      <path
         id="path3045"
         d="m 78.3967,163.149 62.5003,0 0,-60.15 -62.5003,0 0,60.15 z"
         inkscape:connector-curvature="0" />
    </clipPath>
    <clipPath
       id="clipPath3027"
       clipPathUnits="userSpaceOnUse">
      <path
         id="path3029"
         d="m 30.6467,163.145 48.2503,0 0,-60.15 -48.2503,0 0,60.15 z"
         inkscape:connector-curvature="0" />
    </clipPath>
    <clipPath
       id="clipPath3007"
       clipPathUnits="userSpaceOnUse">
      <path
         id="path3009"
         d="m 19.9767,319.055 419.5003,0 0,-301.3963 -419.5003,0 0,301.3963 z"
         inkscape:connector-curvature="0" />
    </clipPath>
    <clipPath
       id="clipPath2999"
       clipPathUnits="userSpaceOnUse">
      <path
         id="path3001"
         d="m 0,340.157 453.543,0 L 453.543,0 0,0 0,340.157 z"
         inkscape:connector-curvature="0" />
    </clipPath>
  </defs>
  <sodipodi:namedview
     id="base"
     pagecolor="#ffffff"
     bordercolor="#666666"
     borderopacity="1.0"
     inkscape:pageopacity="0.0"
     inkscape:pageshadow="2"
     inkscape:zoom="0.35"
     inkscape:cx="322.54933"
     inkscape:cy="65.827132"
     inkscape:document-units="px"
     inkscape:current-layer="layer1"
     showgrid="false"
     fit-margin-top="0"
     fit-margin-left="0"
     fit-margin-right="0"
     fit-margin-bottom="0"
     inkscape:window-width="451"
     inkscape:window-height="475"
     inkscape:window-x="50"
     inkscape:window-y="50"
     inkscape:window-maximized="0" />
  <metadata
     id="metadata7">
    <rdf:RDF>
      <cc:Work
         rdf:about="">
        <dc:format>image/svg+xml</dc:format>
        <dc:type
           rdf:resource="http://purl.org/dc/dcmitype/StillImage" />
        <dc:title></dc:title>
      </cc:Work>
    </rdf:RDF>
  </metadata>
  <g
     inkscape:label="Layer 1"
     inkscape:groupmode="layer"
     id="layer1"
     transform="translate(-52.45067,-215.77096)">
    <g
       id="g2995"
       transform="matrix(1.25,0,0,-1.25,29.984483,617.09394)">
      <g
         id="g2997"
         clip-path="url(#clipPath2999)">
        <g
           id="g3003">
          <g
             id="g3005" />
          <g
             id="g3011">
            <g
               clip-path="url(#clipPath3007)"
               id="g3013">
              <g
                 transform="translate(439.4767,172.4987)"
                 id="g3015">
                <path
                   inkscape:connector-curvature="0"
                   d="m 0,0 0,-79.67 -48.5,0 c 0,0 0.11,-5.97 0,-13.83 -0.14,-6.36 -4.74,-12.58 -14.33,-12.67 l -151,0 21.17,-34.83 -29.84,-13.84 -33,49 c 0,0 -87.42,-0.05 -116.21,0 -7.25,0.01 -14.72,4.75 -14.95,10.33 -0.02,5.11 0,16.51 0,16.51 l -32.84,0 0,79 32.84,0 c 0,0 -0.05,58.45 0,76.66 0.14,5.11 2.69,5.63 4.5,5.67 6.2,0.13 17.83,0 17.83,0 l -28.5,51.5 c 0,0 13.31,6.25 18.17,8.33 6.08,-7.21 17.14,-12.83 23.71,-14.45 7.96,-2.34 24.62,-2.51 32.45,-0.38 21.54,5.84 51.16,15.93 68.88,18.08 7.53,0.92 15.96,1.3 21.29,1.09 34.54,-1.13 42.62,-6.75 45.54,-11.25 9.67,-12.52 33.12,-53.33 33.12,-53.33 0,0 70.81,0 92.07,0.01 8.86,-0.26 10.27,-4.35 10.27,-8.27 0.03,-18.89 0,-73.66 0,-73.66 L 0,0 z"
                   style="fill:#fed403;fill-opacity:1;fill-rule:nonzero;stroke:none"
                   id="path3017" />
              </g>
            </g>
          </g>
        </g>
        <g
           id="g3019"
           transform="translate(52.8167,172.4987)">
          <path
             inkscape:connector-curvature="0"
             d="m 0,0 -32.84,0 0,-79 32.84,0 c 0,0 -0.02,-11.4 0,-16.51 0.23,-5.58 7.7,-10.32 14.95,-10.33 28.79,-0.05 116.21,0 116.21,0 l 33,-49 29.84,13.84 -21.17,34.83 151,0 c 9.59,0.09 14.19,6.31 14.33,12.67 0.11,7.86 0,13.83 0,13.83 l 48.5,0 0,79.67 -47.33,0 c 0,0 0.03,54.77 0,73.66 0,3.92 -1.41,8.01 -10.27,8.27 -21.26,-0.01 -92.07,-0.01 -92.07,-0.01 0,0 -23.45,40.81 -33.12,53.33 -2.92,4.5 -11,10.12 -45.54,11.25 -5.33,0.21 -13.76,-0.17 -21.29,-1.09 -17.72,-2.15 -47.34,-12.24 -68.88,-18.08 -7.83,-2.13 -24.49,-1.96 -32.45,0.38 -6.57,1.62 -17.63,7.24 -23.71,14.45 -4.86,-2.08 -18.17,-8.33 -18.17,-8.33 l 28.5,-51.5 c 0,0 -11.63,0.13 -17.83,0 C 2.69,82.29 0.14,81.77 0,76.66 -0.05,58.45 0,0 0,0 z"
             style="fill:none;stroke:#000000;stroke-width:4;stroke-linecap:butt;stroke-linejoin:miter;stroke-miterlimit:10;stroke-opacity:1;stroke-dasharray:none"
             id="path3021" />
        </g>
        <g
           id="g3023">
          <g
             id="g3025" />
          <g
             id="g3031">
            <g
               clip-path="url(#clipPath3027)"
               id="g3033">
              <g
                 transform="translate(59.6067,145.1387)"
                 id="g3035">
                <path
                   inkscape:connector-curvature="0"
                   d="M 0,0 C 0,1.73 0.37,5.55 -3.75,5.54 -7.5,5.58 -12.46,5.52 -12.46,5.52 l 0,-11 c 0,0 6.37,-0.12 9.71,-0.03 C 0.37,-5.54 0,-1.58 0,0 m -2.21,-30.48 c 3.25,0 2.79,5 2.79,6.42 0,2.5 -0.04,6.42 -4,6.42 l -9.04,0 0,-12.84 10.25,0 z m 13.92,18.34 c 0,0 7.64,-2.67 7.58,-14.67 -0.42,-5.57 -0.63,-14.75 -11.63,-15.12 -11.37,-0.26 -36.62,-0.21 -36.62,-0.21 l 0,60 c 0,0 26.38,0.33 37.12,0 6.88,-0.79 9.5,-6.67 9.76,-14.05 -0.71,-11.66 -6.21,-15.95 -6.21,-15.95"
                   style="fill:#000000;fill-opacity:1;fill-rule:nonzero;stroke:none"
                   id="path3037" />
              </g>
            </g>
          </g>
        </g>
        <g
           id="g3039">
          <g
             id="g3041" />
          <g
             id="g3047">
            <g
               clip-path="url(#clipPath3043)"
               id="g3049">
              <g
                 transform="translate(116.2667,125.0788)"
                 id="g3051">
                <path
                   inkscape:connector-curvature="0"
                   d="M 0,0 -6.62,19.5 -13,0.5 -13,0 0,0 z m 6.38,38.07 18.25,-60.15 -18.25,0 -2.62,8.95 -20.26,0 -2.37,-8.95 -19,0 16.63,60.15 27.62,0 z"
                   style="fill:#000000;fill-opacity:1;fill-rule:nonzero;stroke:none"
                   id="path3053" />
              </g>
            </g>
          </g>
        </g>
        <g
           id="g3055">
          <g
             id="g3057" />
          <g
             id="g3063">
            <g
               clip-path="url(#clipPath3059)"
               id="g3065">
              <g
                 transform="translate(291.8875,125.0788)"
                 id="g3067">
                <path
                   inkscape:connector-curvature="0"
                   d="M 0,0 -6.62,19.5 -13,0.5 -13,0 0,0 z m 6.38,38.07 18.25,-60.15 -18.25,0 -2.62,8.95 -20.26,0 -2.37,-8.95 -19,0 16.63,60.15 27.62,0 z"
                   style="fill:#000000;fill-opacity:1;fill-rule:nonzero;stroke:none"
                   id="path3069" />
              </g>
            </g>
          </g>
        </g>
        <g
           id="g3071">
          <g
             id="g3073" />
          <g
             id="g3079">
            <g
               clip-path="url(#clipPath3075)"
               id="g3081">
              <g
                 transform="translate(177.3367,143.3287)"
                 id="g3083">
                <path
                   inkscape:connector-curvature="0"
                   d="M 0,0 C 0,3.94 -1.25,7.14 -3.81,7.1 -7.56,7.22 -14.69,7.06 -14.69,7.06 l 0,-13.44 c 0,0 7,-0.18 10.88,-0.05 C -1.75,-6.47 0,-3.56 0,0 m 3.56,-18.25 55.25,-92.33 -13.75,-6.92 -60.17,99.08 -0.02,-21.91 -17.56,0 0,60.15 42.13,0 c 6.37,-0.38 7.99,-12.68 7.62,-18.57 -0.32,-5.07 -1,-19.5 -6.5,-19.53 -2.87,-0.12 -7,0.03 -7,0.03"
                   style="fill:#000000;fill-opacity:1;fill-rule:nonzero;stroke:none"
                   id="path3085" />
              </g>
            </g>
          </g>
        </g>
        <g
           id="g3087">
          <g
             id="g3089" />
          <g
             id="g3095">
            <g
               clip-path="url(#clipPath3091)"
               id="g3097">
              <g
                 transform="translate(228.7066,114.0687)"
                 id="g3099">
                <path
                   inkscape:connector-curvature="0"
                   d="m 0,0 c 4.63,0 6.85,11.57 6.85,18.07 0,9.6 -2.34,18.34 -7.5,18.34 -4.09,0.01 -8.29,-0.01 -8.29,-0.01 l 0,-36.39 c 0,0 4.79,-0.02 8.94,-0.01 M 24.31,19 C 24.33,6.32 19.5,-11.07 11.13,-11.07 l -37.44,0 0,60.15 37.81,0 c 7.44,0 12.81,-14.7 12.81,-30.08"
                   style="fill:#000000;fill-opacity:1;fill-rule:nonzero;stroke:none"
                   id="path3101" />
              </g>
            </g>
          </g>
        </g>
        <g
           id="g3103"
           transform="translate(319.8967,163.1487)">
          <path
             inkscape:connector-curvature="0"
             d="m 0,0 0,-60.15 18,0 0,22.08 16,0 0,-22.08 17.75,0 L 51.75,0 33.917,0 33.875,-23.631 18,-23.572 18.062,0 0,0 z"
             style="fill:#000000;fill-opacity:1;fill-rule:nonzero;stroke:none"
             id="path3105" />
        </g>
        <g
           id="g3107"
           transform="translate(381.98,163.1487)">
          <path
             inkscape:connector-curvature="0"
             d="m 0,0 18,0 0,-46.987 27.167,0 0,-13.163 L 0,-60.15 0,0 z"
             style="fill:#000000;fill-opacity:1;fill-rule:nonzero;stroke:none"
             id="path3109" />
        </g>
        <g
           id="g3111">
          <g
             id="g3113" />
          <g
             id="g3119">
            <g
               clip-path="url(#clipPath3115)"
               id="g3121">
              <g
                 transform="translate(307.3867,192.1787)"
                 id="g3123">
                <path
                   inkscape:connector-curvature="0"
                   d="m 0,0 c -0.45,0.62 -10.08,13.62 -33.93,14.43 -7.97,0.27 -19.27,-0.96 -25.81,-2.28 -3.39,-0.68 -9.94,-2.8 -13.19,-3.81 -13.6,-4.24 -33.52,-12.99 -53.89,-18.11 -12.59,-3.16 -38.44,-8.29 -48.29,-1.3 l -37.68,62.36 c 11.38,-3.81 38.72,-1.81 38.72,-1.81 5.83,-10.95 6.71,-12.21 11.25,-19.33 16.83,2 26.96,5.75 34.58,8.17 -2.79,4.75 -9,14.5 -11.83,19.5 -10.09,-4.09 -24.17,-7.59 -34,-8.34 0,0 -9,16 -12.55,22.25 19.13,1.84 20.46,2.59 34.21,6.42 -3.45,6 -11.33,19.94 -11.33,19.94 7.8,2.66 23.23,8.58 31.19,10.75 7.7,2.09 22.23,5.51 31.31,6.31 6.65,0.59 20.06,1.06 26.69,-1 7.19,-2 10.21,-5.82 12.31,-9 C -45.57,79.89 -0.84,1.47 0,0"
                   style="fill:#ffffff;fill-opacity:1;fill-rule:nonzero;stroke:none"
                   id="path3125" />
              </g>
              <g
                 transform="translate(167.3167,249.9987)"
                 id="g3127">
                <path
                   inkscape:connector-curvature="0"
                   d="m 0,0 c 2.83,-5 9.04,-14.75 11.83,-19.5 -7.62,-2.42 -17.75,-6.17 -34.58,-8.17 -4.54,7.12 -5.42,8.38 -11.25,19.33 9.83,0.75 23.91,4.25 34,8.34"
                   style="fill:#000000;fill-opacity:1;fill-rule:nonzero;stroke:none"
                   id="path3129" />
              </g>
              <g
                 transform="translate(143.6467,290.2687)"
                 id="g3131">
                <path
                   inkscape:connector-curvature="0"
                   d="m 0,0 c 0,0 7.88,-13.94 11.33,-19.94 -13.75,-3.83 -15.08,-4.58 -34.21,-6.42 -4.91,7.25 -11.45,19.92 -11.45,19.92 7.82,0.24 14.92,1.51 21.21,2.75 C -9.77,-3.07 -3.23,-1.1 0,0"
                   style="fill:#000000;fill-opacity:1;fill-rule:nonzero;stroke:none"
                   id="path3133" />
              </g>
              <g
                 transform="translate(120.7667,263.9088)"
                 id="g3135">
                <path
                   inkscape:connector-curvature="0"
                   d="m 0,0 c 3.55,-6.25 12.55,-22.25 12.55,-22.25 0,0 -27.34,-2 -38.72,1.81 L -41.11,4.3 C -29.55,0.39 -12.24,-1.7 0,0"
                   style="fill:#000000;fill-opacity:1;fill-rule:nonzero;stroke:none"
                   id="path3137" />
              </g>
              <g
                 transform="translate(109.3167,283.8287)"
                 id="g3139">
                <path
                   inkscape:connector-curvature="0"
                   d="m 0,0 c 0,0 6.54,-12.67 11.45,-19.92 -12.24,-1.7 -29.55,0.39 -41.11,4.3 l -0.01,0 -13.52,22.38 c 0,0 16.72,-3.97 28.14,-5.82 C -9.78,0.08 -4.75,-0.15 0,0"
                   style="fill:#ffffff;fill-opacity:1;fill-rule:nonzero;stroke:none"
                   id="path3141" />
              </g>
            </g>
          </g>
        </g>
        <g
           id="g3143"
           transform="translate(79.6567,268.2087)">
          <path
             inkscape:connector-curvature="0"
             d="M 0,0 14.94,-24.74 52.62,-87.1 66.49,-110.06"
             style="fill:none;stroke:#000000;stroke-width:6;stroke-linecap:square;stroke-linejoin:miter;stroke-miterlimit:10;stroke-opacity:1;stroke-dasharray:none"
             id="path3145" />
        </g>
        <g
           id="g3147"
           transform="translate(63.0667,295.6588)">
          <path
             inkscape:connector-curvature="0"
             d="M 0,0 3.06,-5.07 16.58,-27.45"
             style="fill:none;stroke:#000000;stroke-width:6;stroke-linecap:square;stroke-linejoin:miter;stroke-miterlimit:10;stroke-opacity:1;stroke-dasharray:none"
             id="path3149" />
        </g>
        <g
           id="g3151"
           transform="translate(307.3967,192.1587)">
          <path
             inkscape:connector-curvature="0"
             d="m 0,0 c 0,0 -0.01,0.01 -0.01,0.02 -0.84,1.47 -45.57,79.89 -62.24,105.15 -2.1,3.18 -5.12,7 -12.31,9 -6.63,2.06 -20.04,1.59 -26.69,1 -9.08,-0.8 -23.61,-4.22 -31.31,-6.31 -7.96,-2.17 -23.39,-8.09 -31.19,-10.75 -3.23,-1.1 -9.77,-3.07 -13.12,-3.69 -6.29,-1.24 -13.39,-2.51 -21.21,-2.75 -4.75,-0.15 -9.78,0.08 -15.05,0.94 -11.42,1.85 -28.14,5.82 -28.14,5.82"
             style="fill:none;stroke:#000000;stroke-width:3;stroke-linecap:square;stroke-linejoin:miter;stroke-miterlimit:10;stroke-opacity:1;stroke-dasharray:none"
             id="path3153" />
        </g>
        <g
           id="g3155"
           transform="translate(132.2767,181.1087)">
          <path
             inkscape:connector-curvature="0"
             d="m 0,0 c 9.85,-6.99 35.7,-1.86 48.29,1.3 20.37,5.12 40.29,13.87 53.89,18.11 3.25,1.01 9.8,3.13 13.19,3.81 6.54,1.32 17.84,2.55 25.81,2.28 23.85,-0.81 33.48,-13.81 33.93,-14.43"
             style="fill:none;stroke:#000000;stroke-width:3;stroke-linecap:square;stroke-linejoin:miter;stroke-miterlimit:10;stroke-opacity:1;stroke-dasharray:none"
             id="path3157" />
        </g>
        <g
           id="g3159"
           transform="translate(109.3167,283.8287)">
          <path
             inkscape:connector-curvature="0"
             d="m 0,0 c 0,0 6.54,-12.67 11.45,-19.92 19.13,1.84 20.46,2.59 34.21,6.42 -3.45,6 -11.33,19.94 -11.33,19.94"
             style="fill:none;stroke:#000000;stroke-width:0.25;stroke-linecap:square;stroke-linejoin:miter;stroke-miterlimit:10;stroke-opacity:1;stroke-dasharray:none"
             id="path3161" />
        </g>
        <g
           id="g3163"
           transform="translate(79.6467,268.2087)">
          <path
             inkscape:connector-curvature="0"
             d="m 0,0 0.01,0 c 11.56,-3.91 28.87,-6 41.11,-4.3 3.55,-6.25 12.55,-22.25 12.55,-22.25 0,0 -27.34,-2 -38.72,1.81"
             style="fill:none;stroke:#000000;stroke-width:1;stroke-linecap:butt;stroke-linejoin:miter;stroke-miterlimit:10;stroke-opacity:1;stroke-dasharray:none"
             id="path3165" />
        </g>
        <g
           id="g3167"
           transform="translate(106.9892,222.9602)">
          <path
             inkscape:connector-curvature="0"
             d="m 0,0 c 8.732,-3.345 25.771,-1.881 37.574,-0.631 5.583,-8.322 10.083,-15.625 13.417,-21 -12.25,-2.417 -33.02,-8.113 -38.401,0.792"
             style="fill:#000000;fill-opacity:1;fill-rule:nonzero;stroke:none"
             id="path3169" />
        </g>
        <g
           id="g3171"
           transform="translate(170.6736,180.1911)">
          <path
             inkscape:connector-curvature="0"
             d="m 0,0 c 0,0 -8.402,14.902 -12.694,21.138 9.976,2.178 25.25,5.75 33.084,8.666 C 24.556,22.138 32.62,8.791 32.62,8.791"
             style="fill:#000000;fill-opacity:1;fill-rule:nonzero;stroke:none"
             id="path3173" />
        </g>
        <g
           id="g3175"
           transform="translate(191.0633,209.9954)">
          <path
             inkscape:connector-curvature="0"
             d="m 0,0 c -3.5,5.917 -7.042,12.965 -11.917,20.5 5.233,1.883 17.864,6.12 31.435,9.541 C 23.208,23.958 31.333,10.667 31.333,10.667 31.333,10.667 14.5,5.5 0,0"
             style="fill:#000000;fill-opacity:1;fill-rule:nonzero;stroke:none"
             id="path3177" />
        </g>
        <g
           id="g3179"
           transform="translate(234.4566,200.5187)">
          <path
             inkscape:connector-curvature="0"
             d="M 0,0 C 0,0 -7.685,12.977 -12.06,20.143 1.69,24.497 10.096,25.891 18.107,26.977 21.857,21.81 30.604,5.935 30.604,5.935"
             style="fill:#000000;fill-opacity:1;fill-rule:nonzero;stroke:none"
             id="path3181" />
        </g>
        <g
           id="g3183"
           transform="translate(210.5814,240.0366)">
          <path
             inkscape:connector-curvature="0"
             d="M 0,0 C 1.766,0.545 18.349,5.405 30.232,7.542 27.19,13.521 22.19,21.292 18.315,27.042 7.315,25.917 2.144,24.738 -12.845,20.128 -8.845,13.669 -4.06,5.667 0,0"
             style="fill:#000000;fill-opacity:1;fill-rule:nonzero;stroke:none"
             id="path3185" />
        </g>
        <g
           id="g3187"
           transform="translate(167.3133,249.9954)">
          <path
             inkscape:connector-curvature="0"
             d="m 0,0 c -3.917,7 -12.337,20.333 -12.337,20.333 0,0 22.337,6.76 30.42,9.917 4.339,-6.862 6.998,-12.037 12.34,-20.081 C 21.673,7.752 15.94,5.455 0,0"
             style="fill:#000000;fill-opacity:1;fill-rule:nonzero;stroke:none"
             id="path3189" />
        </g>
        <g
           id="g3191"
           transform="translate(289.8124,222.7317)">
          <path
             inkscape:connector-curvature="0"
             d="m 0,0 c -10.607,6.359 -22.916,7.222 -37.249,4.764 -5.033,7.826 -8.417,15.226 -11.75,20.083 18.833,2.25 23.458,2.188 35.628,-1.885"
             style="fill:#000000;fill-opacity:1;fill-rule:nonzero;stroke:none"
             id="path3193" />
        </g>
        <g
           id="g3195"
           transform="translate(266.0005,263.3904)">
          <path
             inkscape:connector-curvature="0"
             d="m 0,0 c -10.02,7.105 -26.604,5.022 -37.104,3.688 -3.583,6.084 -10,15.5 -12.416,20.417 8.75,0.417 20.694,2.476 36.873,-3.142"
             style="fill:#000000;fill-opacity:1;fill-rule:nonzero;stroke:none"
             id="path3197" />
        </g>
        <g
           id="g3199"
           transform="translate(173.8719,300.7477)">
          <path
             inkscape:connector-curvature="0"
             d="m 0,0 c 0,0 7.858,-14.669 11.525,-20.502 9.779,3.666 21.583,6.166 31.083,7.25 -2.75,4.416 -11.207,19.75 -11.207,19.75"
             style="fill:#000000;fill-opacity:1;fill-rule:nonzero;stroke:none"
             id="path3201" />
        </g>
        <g
           id="g3203">
          <g
             id="g3205" />
          <g
             id="g3211">
            <g
               clip-path="url(#clipPath3207)"
               id="g3213">
              <g
                 transform="translate(157.5543,84.7058)"
                 id="g3215">
                <path
                   inkscape:connector-curvature="0"
                   d="m 0,0 c 1.199,1.233 1.799,2.707 1.791,4.42 -0.006,1.667 -0.613,3.11 -1.818,4.332 -1.219,1.243 -2.68,1.86 -4.378,1.854 -1.723,-0.01 -3.184,-0.64 -4.392,-1.891 -1.188,-1.226 -1.78,-2.674 -1.776,-4.349 0.01,-1.735 0.626,-3.207 1.842,-4.414 1.213,-1.207 2.669,-1.807 4.378,-1.799 C -2.65,-1.841 -1.202,-1.224 0,0 M 3.112,4.425 C 3.122,2.3 2.38,0.503 0.89,-0.962 -0.561,-2.377 -2.309,-3.09 -4.347,-3.1 c -2.108,-0.01 -3.887,0.705 -5.336,2.145 -1.448,1.437 -2.178,3.209 -2.186,5.315 -0.01,2.187 0.76,4.013 2.313,5.469 1.458,1.363 3.172,2.048 5.142,2.057 2.07,0.009 3.84,-0.718 5.309,-2.174 C 2.364,8.254 3.102,6.493 3.112,4.425"
                   style="fill:#000000;fill-opacity:1;fill-rule:nonzero;stroke:none"
                   id="path3217" />
              </g>
              <g
                 transform="translate(156.7074,84.9459)"
                 id="g3219">
                <path
                   inkscape:connector-curvature="0"
                   d="M 0,0 -0.068,0.236 C -0.097,0.315 -0.116,0.398 -0.125,0.479 -0.136,0.558 -0.142,0.64 -0.142,0.722 l -0.006,0.741 c 0,0.848 -0.25,1.466 -0.738,1.857 -0.265,0.211 -0.659,0.367 -1.181,0.472 0.57,0.063 1.047,0.251 1.435,0.566 0.389,0.314 0.583,0.818 0.576,1.517 0,0.915 -0.373,1.575 -1.113,1.977 C -1.604,8.09 -2.15,8.227 -2.809,8.274 -2.924,8.278 -3.494,8.28 -4.518,8.28 -5.545,8.278 -6.321,8.278 -6.833,8.278 l 0.038,-8.307 2.171,0.009 -0.013,2.939 0.459,0 0.477,-0.027 C -3.365,2.873 -3.118,2.83 -2.957,2.76 -2.656,2.649 -2.455,2.445 -2.344,2.153 -2.276,1.979 -2.23,1.639 -2.206,1.14 -2.185,0.64 -2.141,0.255 -2.072,-0.01 L 0,0 z M 2.638,4.18 C 2.646,2.467 2.046,0.993 0.847,-0.24 c -1.202,-1.224 -2.65,-1.841 -4.354,-1.847 -1.708,-0.008 -3.164,0.592 -4.377,1.798 -1.216,1.208 -1.832,2.68 -1.842,4.415 -0.004,1.675 0.588,3.123 1.775,4.349 1.208,1.251 2.67,1.881 4.393,1.891 C -1.86,10.372 -0.399,9.755 0.82,8.512 2.025,7.29 2.632,5.846 2.638,4.18"
                   style="fill:#fed403;fill-opacity:1;fill-rule:nonzero;stroke:none"
                   id="path3221" />
              </g>
              <g
                 transform="translate(154.0952,89.6704)"
                 id="g3223">
                <path
                   inkscape:connector-curvature="0"
                   d="m 0,0 c 0.284,0.207 0.427,0.535 0.424,0.987 -0.002,0.457 -0.226,0.77 -0.672,0.945 -0.3,0.115 -0.721,0.169 -1.262,0.166 l -0.531,-0.002 0.012,-2.408 0.842,0.003 C -0.676,-0.306 -0.283,-0.203 0,0 M 2.544,-4.489 2.612,-4.724 0.54,-4.734 c -0.069,0.264 -0.113,0.649 -0.134,1.149 -0.023,0.5 -0.07,0.839 -0.138,1.014 -0.111,0.291 -0.312,0.496 -0.613,0.607 -0.16,0.07 -0.408,0.113 -0.744,0.131 l -0.477,0.027 -0.458,0 0.012,-2.938 -2.171,-0.009 -0.038,8.306 c 0.513,0 1.288,0 2.315,0.003 1.024,0 1.594,-0.003 1.709,-0.006 C 0.462,3.502 1.008,3.365 1.443,3.128 2.183,2.725 2.556,2.066 2.557,1.151 2.563,0.452 2.369,-0.053 1.98,-0.367 1.592,-0.681 1.115,-0.869 0.545,-0.933 1.067,-1.038 1.462,-1.194 1.726,-1.404 2.214,-1.796 2.464,-2.413 2.464,-3.262 l 0.007,-0.74 c 0,-0.083 0.005,-0.164 0.016,-0.243 0.01,-0.082 0.028,-0.164 0.057,-0.244"
                   style="fill:#000000;fill-opacity:1;fill-rule:nonzero;stroke:none"
                   id="path3225" />
              </g>
              <g
                 transform="translate(154.519,90.6571)"
                 id="g3227">
                <path
                   inkscape:connector-curvature="0"
                   d="M 0,0 C 0.004,-0.452 -0.14,-0.78 -0.424,-0.987 -0.707,-1.19 -1.1,-1.292 -1.611,-1.296 l -0.842,-0.003 -0.011,2.408 0.53,0.002 C -1.393,1.115 -0.972,1.06 -0.672,0.945 -0.226,0.771 -0.002,0.457 0,0"
                   style="fill:#fed403;fill-opacity:1;fill-rule:nonzero;stroke:none"
                   id="path3229" />
              </g>
            </g>
          </g>
        </g>
      </g>
    </g>
  </g>
</svg>
